<?xml version="1.0" standalone="no"?>
<!DOCTYPE svg PUBLIC "-//W3C//DTD SVG 20010904//EN"
 "http://www.w3.org/TR/2001/REC-SVG-20010904/DTD/svg10.dtd">
<svg version="1.0" xmlns="http://www.w3.org/2000/svg"
 width="524.000000pt" height="524.000000pt" viewBox="0 0 524.000000 524.000000"
 preserveAspectRatio="xMidYMid meet">
<metadata>
Created by potrace 1.11, written by Peter Selinger 2001-2013
</metadata>
<g transform="translate(0.000000,524.000000) scale(0.100000,-0.100000)"
fill="#000000" stroke="none">
<path d="M2468 5234 c-3 -2 -36 -6 -74 -9 -58 -5 -184 -26 -305 -50 -15 -3
-67 -17 -115 -31 -49 -14 -97 -27 -106 -29 -9 -2 -26 -9 -37 -15 -12 -6 -21
-8 -21 -6 0 3 -33 -8 -72 -25 -40 -16 -82 -34 -93 -38 -97 -41 -376 -189 -395
-211 -3 -3 -37 -27 -75 -52 -39 -26 -79 -56 -90 -66 -11 -10 -30 -24 -41 -32
-12 -8 -47 -37 -79 -65 -351 -305 -631 -724 -770 -1150 -34 -106 -63 -206 -71
-250 -2 -11 -8 -42 -14 -70 -17 -85 -20 -98 -26 -155 -3 -30 -9 -82 -14 -115
-8 -60 -6 -432 3 -513 5 -37 12 -87 22 -142 1 -8 6 -35 10 -60 9 -54 9 -54 33
-150 48 -186 122 -387 206 -551 57 -112 166 -292 203 -336 13 -14 23 -29 23
-32 0 -3 10 -17 23 -31 12 -14 30 -35 38 -47 65 -94 286 -317 399 -403 18 -14
42 -33 54 -44 58 -51 300 -201 418 -259 176 -86 183 -89 363 -152 64 -22 179
-52 310 -80 11 -3 32 -7 47 -11 15 -3 44 -7 65 -9 21 -2 54 -6 73 -9 115 -20
452 -21 625 -1 28 3 67 8 89 10 21 3 64 9 95 15 31 6 70 13 86 16 116 21 333
86 460 139 73 30 208 97 310 154 53 29 238 162 281 200 18 17 36 31 38 31 3 0
47 42 98 93 137 137 198 210 301 359 37 54 64 98 60 98 -5 0 -2 4 4 8 32 20
205 397 229 497 4 17 9 35 13 40 3 6 6 15 7 20 1 6 10 37 19 70 20 71 32 120
38 155 3 14 8 36 11 50 6 27 15 85 22 140 2 19 6 44 8 55 19 86 27 495 13 635
-13 134 -35 260 -47 275 -6 7 -423 10 -1227 10 l-1218 0 0 -485 0 -485 718 0
717 0 -5 -37 c-3 -21 -12 -58 -20 -83 -7 -25 -11 -45 -9 -45 2 0 -7 -25 -21
-55 -13 -31 -25 -59 -25 -63 -1 -4 -19 -42 -40 -85 -104 -207 -285 -402 -485
-524 -57 -34 -207 -106 -245 -118 -3 -1 -34 -11 -70 -22 -94 -30 -246 -60
-348 -68 -72 -6 -290 -7 -317 -1 -11 2 -42 7 -70 10 -27 4 -57 9 -65 11 -8 2
-31 6 -51 9 -20 3 -85 21 -145 41 -375 123 -680 374 -885 731 -28 49 -52 94
-54 99 -1 6 -10 28 -20 50 -31 70 -75 195 -69 195 4 0 1 7 -6 15 -7 8 -10 15
-7 15 3 0 1 15 -4 33 -6 17 -13 46 -16 62 -3 17 -11 64 -18 105 -13 76 -14
398 -1 450 4 14 9 41 12 60 55 345 266 709 549 945 33 28 62 52 65 55 16 18
167 109 239 146 128 64 304 122 421 140 14 2 52 8 85 13 33 5 130 8 215 6 146
-3 189 -6 250 -19 14 -3 39 -8 55 -11 109 -21 235 -67 350 -126 82 -42 120
-64 123 -71 2 -5 10 -8 17 -8 7 0 15 -3 17 -7 2 -5 28 -27 58 -49 30 -23 65
-51 77 -63 12 -12 27 -21 33 -21 6 0 35 24 64 53 28 28 192 189 363 356 l311
304 -31 26 c-17 14 -39 33 -47 41 -24 22 -95 79 -153 122 -29 20 -56 41 -62
46 -43 35 -358 213 -385 217 -3 1 -23 9 -45 19 -40 18 -192 76 -210 80 -5 2
-17 5 -25 8 -74 27 -313 80 -415 93 -27 3 -66 8 -85 11 -40 7 -487 14 -492 8z"/>
</g>
</svg>
